<svg width="1728" height="216" viewBox="0 0 1728 216" fill="none" xmlns="http://www.w3.org/2000/svg">
<path d="M-386.632 211.469L-455 0H-395.708L-354.566 145.611L-313.122 0H-253.829L-322.197 211.469H-386.632Z" fill="url(#paint0_linear_449_525)"/>
<path d="M-222.054 0H-167.904V211.469H-222.054V0Z" fill="url(#paint1_linear_449_525)"/>
<path d="M-9.06586 211.469L-45.9724 143.194H-65.3332V211.469H-119.483V0H-34.7794C-13.2002 0 4.84973 6.94825 19.3703 20.8448C34.0926 34.5399 41.4537 51.9608 41.4537 73.1077C41.4537 85.7958 38.2269 97.4769 31.7733 108.151C25.3197 118.624 16.5469 126.982 5.45474 133.225L49.0165 211.469H-9.06586ZM-65.3332 49.8462V97.2755H-35.3845C-28.7292 97.4769 -23.284 95.3622 -19.0488 90.9315C-14.8136 86.5007 -12.696 80.7608 -12.696 73.7119C-12.696 66.6629 -14.8136 60.9231 -19.0488 56.4923C-23.284 52.0615 -28.7292 49.8462 -35.3845 49.8462H-65.3332Z" fill="url(#paint2_linear_449_525)"/>
<path d="M224.011 0V52.2629H171.676V211.469H117.526V52.2629H65.1915V0H224.011Z" fill="url(#paint3_linear_449_525)"/>
<path d="M400.654 195.759C385.125 209.253 365.059 216 340.454 216C315.85 216 295.682 209.253 279.952 195.759C264.423 182.266 256.658 164.341 256.658 141.986V0H310.808V136.85C310.808 154.573 320.69 163.435 340.454 163.435C360.218 163.435 370.1 154.573 370.1 136.85V0H424.25V141.986C424.25 164.341 416.385 182.266 400.654 195.759Z" fill="url(#paint4_linear_449_525)"/>
<path d="M593.917 211.469L584.842 180.957H514.356L505.281 211.469H446.594L516.474 0H582.422L652.302 211.469H593.917ZM528.272 134.434H570.926L549.448 62.5343L528.272 134.434Z" fill="url(#paint5_linear_449_525)"/>
<path d="M736.975 159.206H809.88V211.469H682.825V0H736.975V159.206Z" fill="url(#paint6_linear_449_525)"/>
<path d="M1038.86 211.469L1001.95 143.194H982.589V211.469H928.439V0H1013.14C1034.72 0 1052.77 6.94825 1067.29 20.8448C1082.01 34.5399 1089.38 51.9608 1089.38 73.1077C1089.38 85.7958 1086.15 97.4769 1079.7 108.151C1073.24 118.624 1064.47 126.982 1053.38 133.225L1096.94 211.469H1038.86ZM982.589 49.8462V97.2755H1012.54C1019.19 97.4769 1024.64 95.3622 1028.87 90.9315C1033.11 86.5007 1035.23 80.7608 1035.23 73.7119C1035.23 66.6629 1033.11 60.9231 1028.87 56.4923C1024.64 52.0615 1019.19 49.8462 1012.54 49.8462H982.589Z" fill="url(#paint7_linear_449_525)"/>
<path d="M1185.31 160.716H1267.29V211.469H1131.16V0H1265.78V50.4503H1185.31V79.7538H1258.21V129.6H1185.31V160.716Z" fill="url(#paint8_linear_449_525)"/>
<path d="M1440.3 211.469L1431.23 180.957H1360.74L1351.67 211.469H1292.98L1362.86 0H1428.81L1498.69 211.469H1440.3ZM1374.66 134.434H1417.31L1395.83 62.5343L1374.66 134.434Z" fill="url(#paint9_linear_449_525)"/>
<path d="M1583.36 159.206H1656.27V211.469H1529.21V0H1583.36V159.206Z" fill="url(#paint10_linear_449_525)"/>
<path d="M1691.16 0H1745.31V211.469H1691.16V0Z" fill="url(#paint11_linear_449_525)"/>
<path d="M1938.94 0V52.2629H1886.6V211.469H1832.45V52.2629H1780.12V0H1938.94Z" fill="url(#paint12_linear_449_525)"/>
<path d="M2154 0L2082.61 130.204V211.469H2028.46V130.808L1957.06 0H2017.87L2055.38 78.2434L2093.2 0H2154Z" fill="url(#paint13_linear_449_525)"/>
<defs>
<linearGradient id="paint0_linear_449_525" x1="2154.14" y1="108.184" x2="-455.03" y2="108.184" gradientUnits="userSpaceOnUse">
<stop stop-color="white" stop-opacity="0"/>
<stop offset="0.494162" stop-color="#F1E8FF"/>
<stop offset="1" stop-color="white" stop-opacity="0"/>
</linearGradient>
<linearGradient id="paint1_linear_449_525" x1="2154.14" y1="108.184" x2="-455.03" y2="108.184" gradientUnits="userSpaceOnUse">
<stop stop-color="white" stop-opacity="0"/>
<stop offset="0.494162" stop-color="#F1E8FF"/>
<stop offset="1" stop-color="white" stop-opacity="0"/>
</linearGradient>
<linearGradient id="paint2_linear_449_525" x1="2154.14" y1="108.184" x2="-455.03" y2="108.184" gradientUnits="userSpaceOnUse">
<stop stop-color="white" stop-opacity="0"/>
<stop offset="0.494162" stop-color="#F1E8FF"/>
<stop offset="1" stop-color="white" stop-opacity="0"/>
</linearGradient>
<linearGradient id="paint3_linear_449_525" x1="2154.14" y1="108.184" x2="-455.03" y2="108.184" gradientUnits="userSpaceOnUse">
<stop stop-color="white" stop-opacity="0"/>
<stop offset="0.494162" stop-color="#F1E8FF"/>
<stop offset="1" stop-color="white" stop-opacity="0"/>
</linearGradient>
<linearGradient id="paint4_linear_449_525" x1="2154.14" y1="108.184" x2="-455.03" y2="108.184" gradientUnits="userSpaceOnUse">
<stop stop-color="white" stop-opacity="0"/>
<stop offset="0.494162" stop-color="#F1E8FF"/>
<stop offset="1" stop-color="white" stop-opacity="0"/>
</linearGradient>
<linearGradient id="paint5_linear_449_525" x1="2154.14" y1="108.184" x2="-455.03" y2="108.184" gradientUnits="userSpaceOnUse">
<stop stop-color="white" stop-opacity="0"/>
<stop offset="0.494162" stop-color="#F1E8FF"/>
<stop offset="1" stop-color="white" stop-opacity="0"/>
</linearGradient>
<linearGradient id="paint6_linear_449_525" x1="2154.14" y1="108.184" x2="-455.03" y2="108.184" gradientUnits="userSpaceOnUse">
<stop stop-color="white" stop-opacity="0"/>
<stop offset="0.494162" stop-color="#F1E8FF"/>
<stop offset="1" stop-color="white" stop-opacity="0"/>
</linearGradient>
<linearGradient id="paint7_linear_449_525" x1="2154.14" y1="108.184" x2="-455.03" y2="108.184" gradientUnits="userSpaceOnUse">
<stop stop-color="white" stop-opacity="0"/>
<stop offset="0.494162" stop-color="#F1E8FF"/>
<stop offset="1" stop-color="white" stop-opacity="0"/>
</linearGradient>
<linearGradient id="paint8_linear_449_525" x1="2154.14" y1="108.184" x2="-455.03" y2="108.184" gradientUnits="userSpaceOnUse">
<stop stop-color="white" stop-opacity="0"/>
<stop offset="0.494162" stop-color="#F1E8FF"/>
<stop offset="1" stop-color="white" stop-opacity="0"/>
</linearGradient>
<linearGradient id="paint9_linear_449_525" x1="2154.14" y1="108.184" x2="-455.03" y2="108.184" gradientUnits="userSpaceOnUse">
<stop stop-color="white" stop-opacity="0"/>
<stop offset="0.494162" stop-color="#F1E8FF"/>
<stop offset="1" stop-color="white" stop-opacity="0"/>
</linearGradient>
<linearGradient id="paint10_linear_449_525" x1="2154.14" y1="108.184" x2="-455.03" y2="108.184" gradientUnits="userSpaceOnUse">
<stop stop-color="white" stop-opacity="0"/>
<stop offset="0.494162" stop-color="#F1E8FF"/>
<stop offset="1" stop-color="white" stop-opacity="0"/>
</linearGradient>
<linearGradient id="paint11_linear_449_525" x1="2154.14" y1="108.184" x2="-455.03" y2="108.184" gradientUnits="userSpaceOnUse">
<stop stop-color="white" stop-opacity="0"/>
<stop offset="0.494162" stop-color="#F1E8FF"/>
<stop offset="1" stop-color="white" stop-opacity="0"/>
</linearGradient>
<linearGradient id="paint12_linear_449_525" x1="2154.14" y1="108.184" x2="-455.03" y2="108.184" gradientUnits="userSpaceOnUse">
<stop stop-color="white" stop-opacity="0"/>
<stop offset="0.494162" stop-color="#F1E8FF"/>
<stop offset="1" stop-color="white" stop-opacity="0"/>
</linearGradient>
<linearGradient id="paint13_linear_449_525" x1="2154.14" y1="108.184" x2="-455.03" y2="108.184" gradientUnits="userSpaceOnUse">
<stop stop-color="white" stop-opacity="0"/>
<stop offset="0.494162" stop-color="#F1E8FF"/>
<stop offset="1" stop-color="white" stop-opacity="0"/>
</linearGradient>
</defs>
</svg>
