<svg width="193" height="38" viewBox="0 0 193 38" fill="none" xmlns="http://www.w3.org/2000/svg">
<path d="M53.6007 7V26.1722H63.5636V29.5556H50V7H53.6007Z" fill="#131313"/>
<path d="M78.2643 13.4444H81.6755V29.5555H78.2643V27.5954C77.5063 28.3472 76.6399 28.938 75.6382 29.3407C74.6636 29.7704 73.6348 29.9852 72.579 29.9852C70.9546 29.9852 69.5197 29.6093 68.3014 28.8843C67.0561 28.1324 66.1085 27.112 65.4046 25.8231C64.7278 24.5611 64.4029 23.1111 64.4029 21.5268C64.4029 19.9426 64.7548 18.4926 65.4317 17.2037C66.1085 15.9148 67.0561 14.9213 68.3014 14.1694C69.5468 13.4176 70.9546 13.0685 72.579 13.0685C73.6348 13.0685 74.6636 13.2833 75.6382 13.6861C76.6129 14.1157 77.5063 14.6796 78.2643 15.4315V13.4444ZM75.6382 26.038C76.4504 25.5815 77.1002 24.9639 77.5604 24.1583C78.0207 23.3528 78.2643 22.4667 78.2643 21.4731C78.2643 20.4796 78.0207 19.5935 77.5604 18.8148C77.1002 18.0361 76.4504 17.4185 75.6382 16.9889C74.826 16.5593 73.9326 16.3176 72.958 16.3176C71.9834 16.3176 71.0899 16.5324 70.3048 16.9889C69.5197 17.4454 68.9241 18.063 68.4639 18.8685C68.0036 19.6741 67.787 20.5602 67.787 21.5537C67.787 22.5472 68.0036 23.4333 68.4639 24.2389C68.9241 24.9907 69.5197 25.6083 70.3319 26.0648C71.1441 26.5213 72.0104 26.7361 72.9851 26.7361C73.9326 26.7093 74.826 26.4944 75.6382 26.038Z" fill="#131313"/>
<path d="M96.9177 13.6324C97.8923 14.0352 98.7586 14.7333 99.4625 15.7806C100.166 16.8009 100.545 18.1972 100.545 19.9426V29.5556H97.1343V19.9157C97.1343 18.5463 96.7552 17.5528 95.9701 16.9352C95.185 16.3176 94.2916 16.0222 93.2357 16.0222C92.207 16.0222 91.3406 16.3713 90.6096 17.0963C89.8787 17.8213 89.4996 18.9491 89.4996 20.5333V29.5556H86.0884V13.4444H89.4996V15.0556C90.0953 14.4648 90.7721 13.9546 91.5301 13.5787C92.2882 13.2028 93.1274 13.0148 94.0209 13.0148C94.9684 13.0148 95.943 13.2296 96.9177 13.6324Z" fill="#131313"/>
<path d="M116.952 7H120.363V29.5556H116.952V27.5954C116.194 28.3472 115.327 28.938 114.326 29.3407C113.351 29.7704 112.322 29.9583 111.266 29.9583C109.642 29.9583 108.207 29.5824 106.989 28.8574C105.743 28.1056 104.796 27.112 104.119 25.8231C103.442 24.5343 103.09 23.1111 103.09 21.5269C103.09 19.9426 103.442 18.4926 104.119 17.2037C104.796 15.9148 105.771 14.8944 106.989 14.1694C108.207 13.4444 109.642 13.0685 111.266 13.0685C112.322 13.0685 113.351 13.2833 114.326 13.6861C115.3 14.1157 116.194 14.6796 116.952 15.4315V7ZM114.353 26.038C115.165 25.5815 115.815 24.9639 116.275 24.1583C116.735 23.3528 116.979 22.4667 116.979 21.4731C116.979 20.4796 116.735 19.5935 116.275 18.8148C115.815 18.0361 115.165 17.4185 114.353 16.9889C113.541 16.5593 112.647 16.3176 111.672 16.3176C110.698 16.3176 109.804 16.5324 109.019 16.9889C108.234 17.4454 107.612 18.0361 107.178 18.8417C106.745 19.6472 106.502 20.5333 106.502 21.5269C106.502 22.5204 106.718 23.4065 107.178 24.212C107.612 25.0176 108.234 25.6352 109.019 26.0648C109.804 26.4944 110.698 26.7361 111.672 26.7361C112.647 26.7093 113.541 26.4944 114.353 26.038Z" fill="#131313"/>
<path d="M127.781 19.0565C128.322 19.2982 129.216 19.5667 130.461 19.8889C131.707 20.1574 132.762 20.4528 133.575 20.775C134.387 21.0972 135.118 21.5806 135.713 22.2519C136.309 22.9232 136.607 23.8093 136.607 24.9639C136.607 25.9843 136.309 26.8972 135.686 27.6491C135.091 28.4009 134.251 28.9917 133.223 29.3944C132.194 29.7972 131.057 29.9852 129.838 29.9852C128.16 29.9852 126.752 29.663 125.561 28.9917C124.37 28.3204 123.503 27.4074 122.962 26.2259L125.75 24.7759C126.075 25.5815 126.59 26.1991 127.294 26.6019C127.998 27.0046 128.837 27.1926 129.838 27.1926C130.759 27.1926 131.571 27.0046 132.248 26.6019C132.925 26.2259 133.277 25.662 133.277 24.9639C133.277 24.3463 132.979 23.8898 132.356 23.5944C131.734 23.2991 130.759 23.0037 129.459 22.6815C128.187 22.3593 127.158 22.0639 126.4 21.7685C125.642 21.4732 124.965 21.0167 124.397 20.4259C123.828 19.8352 123.558 19.0028 123.558 17.9824C123.558 16.9889 123.828 16.1296 124.397 15.3778C124.965 14.6259 125.723 14.0352 126.671 13.6324C127.618 13.2296 128.674 13.0148 129.866 13.0148C131.246 13.0148 132.492 13.3102 133.575 13.9009C134.657 14.4917 135.497 15.3241 136.092 16.3713L133.304 17.7676C132.708 16.4519 131.544 15.8074 129.866 15.8074C128.972 15.8074 128.268 15.9954 127.754 16.3713C127.239 16.7472 126.969 17.2574 126.969 17.9019C126.969 18.4389 127.239 18.8148 127.781 19.0565Z" fill="#131313"/>
<path d="M153.446 29.5556H150.035V19.9963C150.035 18.6269 149.656 17.6333 148.871 17.0426C148.113 16.4519 147.192 16.1296 146.164 16.1296C145.351 16.1296 144.62 16.3713 143.944 16.8278C143.267 17.3111 142.807 18.063 142.563 19.0833V29.5556H139.152V7H142.563V15.0019C143.158 14.4111 143.808 13.9546 144.539 13.6324C145.27 13.3102 146.055 13.1222 146.922 13.1222C147.869 13.1222 148.844 13.3102 149.818 13.713C150.793 14.1157 151.659 14.8139 152.363 15.8343C153.067 16.8546 153.446 18.1972 153.446 19.9157V29.5556Z" fill="#131313"/>
<path d="M160.16 28.8306C158.861 28.0787 157.805 27.0315 157.047 25.7426C156.289 24.4537 155.91 23.0306 155.91 21.5C155.91 19.9694 156.289 18.5732 157.047 17.2843C157.805 15.9954 158.834 14.975 160.16 14.1963C161.46 13.4444 162.895 13.0417 164.438 13.0417C165.981 13.0417 167.389 13.4176 168.715 14.1963C170.015 14.9482 171.071 15.9954 171.829 17.2843C172.587 18.5732 172.966 19.9694 172.966 21.5C172.966 23.0306 172.587 24.4269 171.829 25.7426C171.071 27.0315 170.042 28.0787 168.715 28.8306C167.416 29.5824 165.981 29.9852 164.438 29.9852C162.895 29.9852 161.46 29.5824 160.16 28.8306ZM166.983 25.9037C167.768 25.4472 168.391 24.8296 168.824 24.0509C169.284 23.2722 169.501 22.4398 169.501 21.5C169.501 20.587 169.284 19.7278 168.824 18.9491C168.364 18.1704 167.741 17.5528 166.983 17.1232C166.225 16.6935 165.358 16.4519 164.411 16.4519C163.49 16.4519 162.624 16.6667 161.839 17.1232C161.054 17.5796 160.431 18.1972 159.971 18.9491C159.511 19.7278 159.267 20.5602 159.267 21.5C159.267 22.413 159.511 23.2722 159.971 24.0509C160.431 24.8296 161.054 25.4472 161.839 25.9037C162.624 26.3602 163.463 26.6019 164.411 26.6019C165.358 26.6019 166.198 26.3602 166.983 25.9037Z" fill="#131313"/>
<path d="M189.101 14.1426C190.347 14.8676 191.294 15.888 191.971 17.1768C192.648 18.4657 193 19.9157 193 21.5C193 23.0843 192.648 24.5343 191.971 25.8231C191.294 27.112 190.32 28.1324 189.101 28.8574C187.856 29.6093 186.448 29.9583 184.824 29.9583C183.768 29.9583 182.739 29.7435 181.765 29.3407C180.79 28.9111 179.897 28.3472 179.139 27.5954V36H175.727V13.4444H179.139V15.4046C179.897 14.6796 180.763 14.0889 181.765 13.6861C182.739 13.2565 183.768 13.0685 184.824 13.0685C186.448 13.0685 187.883 13.4176 189.101 14.1426ZM187.044 26.0111C187.829 25.5546 188.452 24.937 188.912 24.1583C189.372 23.3796 189.589 22.4935 189.589 21.5C189.589 20.5065 189.372 19.6204 188.912 18.8148C188.452 18.0093 187.829 17.3917 187.044 16.9352C186.259 16.4787 185.365 16.2907 184.391 16.2907C183.416 16.2907 182.523 16.5055 181.738 16.962C180.925 17.4185 180.303 18.0361 179.842 18.8417C179.382 19.6472 179.139 20.5333 179.139 21.5268C179.139 22.5204 179.382 23.4065 179.842 24.1852C180.303 24.9639 180.952 25.5815 181.738 26.0111C182.55 26.4407 183.416 26.6824 184.391 26.6824C185.365 26.6824 186.259 26.4676 187.044 26.0111Z" fill="#131313"/>
<path d="M35.4028 13.094L34.9436 8.70817C34.2786 3.9265 32.1094 1.979 27.4703 1.979H23.7336H21.3903H16.5769H14.2336H10.4336C5.77861 1.979 3.62528 3.9265 2.94445 8.75567L2.51695 13.1098C2.35861 14.804 2.81778 16.4507 3.81528 17.7332C5.01861 19.3007 6.87111 20.1873 8.92945 20.1873C10.9244 20.1873 12.8403 19.1898 14.0436 17.5907C15.1203 19.1898 16.9569 20.1873 18.9994 20.1873C21.0419 20.1873 22.8311 19.2373 23.9236 17.654C25.1428 19.2215 27.0269 20.1873 28.9903 20.1873C31.0961 20.1873 32.9961 19.2532 34.1836 17.6065C35.1336 16.3398 35.5611 14.7407 35.4028 13.094Z" fill="#FF6B31"/>
<path d="M17.9703 26.3786C15.9595 26.5844 14.4395 28.2944 14.4395 30.3211V34.6594C14.4395 35.0869 14.7878 35.4352 15.2153 35.4352H22.7678C23.1953 35.4352 23.5436 35.0869 23.5436 34.6594V30.8752C23.5595 27.5661 21.612 25.9986 17.9703 26.3786Z" fill="#FF6B31"/>
<path d="M33.8357 22.8001V27.5185C33.8357 31.8885 30.2891 35.4351 25.9191 35.4351C25.4916 35.4351 25.1432 35.0868 25.1432 34.6593V30.8751C25.1432 28.8485 24.5257 27.2651 23.3224 26.1885C22.2616 25.2226 20.8207 24.7476 19.0316 24.7476C18.6357 24.7476 18.2399 24.7635 17.8124 24.811C14.9941 25.096 12.8566 27.471 12.8566 30.321V34.6593C12.8566 35.0868 12.5082 35.4351 12.0807 35.4351C7.71073 35.4351 4.16406 31.8885 4.16406 27.5185V22.8318C4.16406 21.7235 5.25656 20.9793 6.28573 21.3435C6.71323 21.486 7.14073 21.5968 7.58406 21.6601C7.77406 21.6918 7.9799 21.7235 8.1699 21.7235C8.42323 21.7551 8.67656 21.771 8.9299 21.771C10.7666 21.771 12.5716 21.0901 13.9966 19.9185C15.3582 21.0901 17.1316 21.771 18.9999 21.771C20.8841 21.771 22.6257 21.1218 23.9874 19.9501C25.4124 21.106 27.1857 21.771 28.9907 21.771C29.2757 21.771 29.5607 21.7551 29.8299 21.7235C30.0199 21.7076 30.1941 21.6918 30.3682 21.6601C30.8591 21.5968 31.3024 21.4543 31.7457 21.3118C32.7749 20.9635 33.8357 21.7235 33.8357 22.8001Z" fill="#FF6B31"/>
</svg>
