<svg width="930" height="5" viewBox="0 0 930 5" fill="none" xmlns="http://www.w3.org/2000/svg">
<g opacity="0.1">
<path d="M5 2.5C5 3.88071 3.88071 5 2.5 5C1.11929 5 0 3.88071 0 2.5C0 1.11929 1.11929 0 2.5 0C3.88071 0 5 1.11929 5 2.5Z" fill="#131313"/>
<path d="M18 2.5C18 3.88071 16.8807 5 15.5 5C14.1193 5 13 3.88071 13 2.5C13 1.11929 14.1193 0 15.5 0C16.8807 0 18 1.11929 18 2.5Z" fill="#131313"/>
<path d="M31 2.5C31 3.88071 29.8807 5 28.5 5C27.1193 5 26 3.88071 26 2.5C26 1.11929 27.1193 0 28.5 0C29.8807 0 31 1.11929 31 2.5Z" fill="#131313"/>
<path d="M44 2.5C44 3.88071 42.8807 5 41.5 5C40.1193 5 39 3.88071 39 2.5C39 1.11929 40.1193 0 41.5 0C42.8807 0 44 1.11929 44 2.5Z" fill="#131313"/>
<path d="M57 2.5C57 3.88071 55.8807 5 54.5 5C53.1193 5 52 3.88071 52 2.5C52 1.11929 53.1193 0 54.5 0C55.8807 0 57 1.11929 57 2.5Z" fill="#131313"/>
<path d="M70 2.5C70 3.88071 68.8807 5 67.5 5C66.1193 5 65 3.88071 65 2.5C65 1.11929 66.1193 0 67.5 0C68.8807 0 70 1.11929 70 2.5Z" fill="#131313"/>
<path d="M83 2.5C83 3.88071 81.8807 5 80.5 5C79.1193 5 78 3.88071 78 2.5C78 1.11929 79.1193 0 80.5 0C81.8807 0 83 1.11929 83 2.5Z" fill="#131313"/>
<path d="M96 2.5C96 3.88071 94.8807 5 93.5 5C92.1193 5 91 3.88071 91 2.5C91 1.11929 92.1193 0 93.5 0C94.8807 0 96 1.11929 96 2.5Z" fill="#131313"/>
<path d="M109 2.5C109 3.88071 107.881 5 106.5 5C105.119 5 104 3.88071 104 2.5C104 1.11929 105.119 0 106.5 0C107.881 0 109 1.11929 109 2.5Z" fill="#131313"/>
<path d="M122 2.5C122 3.88071 120.881 5 119.5 5C118.119 5 117 3.88071 117 2.5C117 1.11929 118.119 0 119.5 0C120.881 0 122 1.11929 122 2.5Z" fill="#131313"/>
<path d="M135 2.5C135 3.88071 133.881 5 132.5 5C131.119 5 130 3.88071 130 2.5C130 1.11929 131.119 0 132.5 0C133.881 0 135 1.11929 135 2.5Z" fill="#131313"/>
<path d="M148 2.5C148 3.88071 146.881 5 145.5 5C144.119 5 143 3.88071 143 2.5C143 1.11929 144.119 0 145.5 0C146.881 0 148 1.11929 148 2.5Z" fill="#131313"/>
<path d="M161 2.5C161 3.88071 159.881 5 158.5 5C157.119 5 156 3.88071 156 2.5C156 1.11929 157.119 0 158.5 0C159.881 0 161 1.11929 161 2.5Z" fill="#131313"/>
<path d="M174 2.5C174 3.88071 172.881 5 171.5 5C170.119 5 169 3.88071 169 2.5C169 1.11929 170.119 0 171.5 0C172.881 0 174 1.11929 174 2.5Z" fill="#131313"/>
<path d="M187 2.5C187 3.88071 185.881 5 184.5 5C183.119 5 182 3.88071 182 2.5C182 1.11929 183.119 0 184.5 0C185.881 0 187 1.11929 187 2.5Z" fill="#131313"/>
<path d="M200 2.5C200 3.88071 198.881 5 197.5 5C196.119 5 195 3.88071 195 2.5C195 1.11929 196.119 0 197.5 0C198.881 0 200 1.11929 200 2.5Z" fill="#131313"/>
<path d="M213 2.5C213 3.88071 211.881 5 210.5 5C209.119 5 208 3.88071 208 2.5C208 1.11929 209.119 0 210.5 0C211.881 0 213 1.11929 213 2.5Z" fill="#131313"/>
<path d="M226 2.5C226 3.88071 224.881 5 223.5 5C222.119 5 221 3.88071 221 2.5C221 1.11929 222.119 0 223.5 0C224.881 0 226 1.11929 226 2.5Z" fill="#131313"/>
<path d="M239 2.5C239 3.88071 237.881 5 236.5 5C235.119 5 234 3.88071 234 2.5C234 1.11929 235.119 0 236.5 0C237.881 0 239 1.11929 239 2.5Z" fill="#131313"/>
<path d="M252 2.5C252 3.88071 250.881 5 249.5 5C248.119 5 247 3.88071 247 2.5C247 1.11929 248.119 0 249.5 0C250.881 0 252 1.11929 252 2.5Z" fill="#131313"/>
</g>
<g opacity="0.1">
<path d="M357 2.5C357 3.88071 355.881 5 354.5 5C353.119 5 352 3.88071 352 2.5C352 1.11929 353.119 0 354.5 0C355.881 0 357 1.11929 357 2.5Z" fill="#131313"/>
<path d="M370 2.5C370 3.88071 368.881 5 367.5 5C366.119 5 365 3.88071 365 2.5C365 1.11929 366.119 0 367.5 0C368.881 0 370 1.11929 370 2.5Z" fill="#131313"/>
<path d="M383 2.5C383 3.88071 381.881 5 380.5 5C379.119 5 378 3.88071 378 2.5C378 1.11929 379.119 0 380.5 0C381.881 0 383 1.11929 383 2.5Z" fill="#131313"/>
<path d="M396 2.5C396 3.88071 394.881 5 393.5 5C392.119 5 391 3.88071 391 2.5C391 1.11929 392.119 0 393.5 0C394.881 0 396 1.11929 396 2.5Z" fill="#131313"/>
<path d="M409 2.5C409 3.88071 407.881 5 406.5 5C405.119 5 404 3.88071 404 2.5C404 1.11929 405.119 0 406.5 0C407.881 0 409 1.11929 409 2.5Z" fill="#131313"/>
<path d="M422 2.5C422 3.88071 420.881 5 419.5 5C418.119 5 417 3.88071 417 2.5C417 1.11929 418.119 0 419.5 0C420.881 0 422 1.11929 422 2.5Z" fill="#131313"/>
<path d="M435 2.5C435 3.88071 433.881 5 432.5 5C431.119 5 430 3.88071 430 2.5C430 1.11929 431.119 0 432.5 0C433.881 0 435 1.11929 435 2.5Z" fill="#131313"/>
<path d="M448 2.5C448 3.88071 446.881 5 445.5 5C444.119 5 443 3.88071 443 2.5C443 1.11929 444.119 0 445.5 0C446.881 0 448 1.11929 448 2.5Z" fill="#131313"/>
<path d="M461 2.5C461 3.88071 459.881 5 458.5 5C457.119 5 456 3.88071 456 2.5C456 1.11929 457.119 0 458.5 0C459.881 0 461 1.11929 461 2.5Z" fill="#131313"/>
<path d="M474 2.5C474 3.88071 472.881 5 471.5 5C470.119 5 469 3.88071 469 2.5C469 1.11929 470.119 0 471.5 0C472.881 0 474 1.11929 474 2.5Z" fill="#131313"/>
<path d="M487 2.5C487 3.88071 485.881 5 484.5 5C483.119 5 482 3.88071 482 2.5C482 1.11929 483.119 0 484.5 0C485.881 0 487 1.11929 487 2.5Z" fill="#131313"/>
<path d="M500 2.5C500 3.88071 498.881 5 497.5 5C496.119 5 495 3.88071 495 2.5C495 1.11929 496.119 0 497.5 0C498.881 0 500 1.11929 500 2.5Z" fill="#131313"/>
<path d="M513 2.5C513 3.88071 511.881 5 510.5 5C509.119 5 508 3.88071 508 2.5C508 1.11929 509.119 0 510.5 0C511.881 0 513 1.11929 513 2.5Z" fill="#131313"/>
<path d="M526 2.5C526 3.88071 524.881 5 523.5 5C522.119 5 521 3.88071 521 2.5C521 1.11929 522.119 0 523.5 0C524.881 0 526 1.11929 526 2.5Z" fill="#131313"/>
<path d="M539 2.5C539 3.88071 537.881 5 536.5 5C535.119 5 534 3.88071 534 2.5C534 1.11929 535.119 0 536.5 0C537.881 0 539 1.11929 539 2.5Z" fill="#131313"/>
<path d="M552 2.5C552 3.88071 550.881 5 549.5 5C548.119 5 547 3.88071 547 2.5C547 1.11929 548.119 0 549.5 0C550.881 0 552 1.11929 552 2.5Z" fill="#131313"/>
<path d="M565 2.5C565 3.88071 563.881 5 562.5 5C561.119 5 560 3.88071 560 2.5C560 1.11929 561.119 0 562.5 0C563.881 0 565 1.11929 565 2.5Z" fill="#131313"/>
<path d="M578 2.5C578 3.88071 576.881 5 575.5 5C574.119 5 573 3.88071 573 2.5C573 1.11929 574.119 0 575.5 0C576.881 0 578 1.11929 578 2.5Z" fill="#131313"/>
<path d="M591 2.5C591 3.88071 589.881 5 588.5 5C587.119 5 586 3.88071 586 2.5C586 1.11929 587.119 0 588.5 0C589.881 0 591 1.11929 591 2.5Z" fill="#131313"/>
<path d="M604 2.5C604 3.88071 602.881 5 601.5 5C600.119 5 599 3.88071 599 2.5C599 1.11929 600.119 0 601.5 0C602.881 0 604 1.11929 604 2.5Z" fill="#131313"/>
</g>
<g opacity="0.1">
<path d="M683 2.5C683 3.88071 681.881 5 680.5 5C679.119 5 678 3.88071 678 2.5C678 1.11929 679.119 0 680.5 0C681.881 0 683 1.11929 683 2.5Z" fill="#131313"/>
<path d="M696 2.5C696 3.88071 694.881 5 693.5 5C692.119 5 691 3.88071 691 2.5C691 1.11929 692.119 0 693.5 0C694.881 0 696 1.11929 696 2.5Z" fill="#131313"/>
<path d="M709 2.5C709 3.88071 707.881 5 706.5 5C705.119 5 704 3.88071 704 2.5C704 1.11929 705.119 0 706.5 0C707.881 0 709 1.11929 709 2.5Z" fill="#131313"/>
<path d="M722 2.5C722 3.88071 720.881 5 719.5 5C718.119 5 717 3.88071 717 2.5C717 1.11929 718.119 0 719.5 0C720.881 0 722 1.11929 722 2.5Z" fill="#131313"/>
<path d="M735 2.5C735 3.88071 733.881 5 732.5 5C731.119 5 730 3.88071 730 2.5C730 1.11929 731.119 0 732.5 0C733.881 0 735 1.11929 735 2.5Z" fill="#131313"/>
<path d="M748 2.5C748 3.88071 746.881 5 745.5 5C744.119 5 743 3.88071 743 2.5C743 1.11929 744.119 0 745.5 0C746.881 0 748 1.11929 748 2.5Z" fill="#131313"/>
<path d="M761 2.5C761 3.88071 759.881 5 758.5 5C757.119 5 756 3.88071 756 2.5C756 1.11929 757.119 0 758.5 0C759.881 0 761 1.11929 761 2.5Z" fill="#131313"/>
<path d="M774 2.5C774 3.88071 772.881 5 771.5 5C770.119 5 769 3.88071 769 2.5C769 1.11929 770.119 0 771.5 0C772.881 0 774 1.11929 774 2.5Z" fill="#131313"/>
<path d="M787 2.5C787 3.88071 785.881 5 784.5 5C783.119 5 782 3.88071 782 2.5C782 1.11929 783.119 0 784.5 0C785.881 0 787 1.11929 787 2.5Z" fill="#131313"/>
<path d="M800 2.5C800 3.88071 798.881 5 797.5 5C796.119 5 795 3.88071 795 2.5C795 1.11929 796.119 0 797.5 0C798.881 0 800 1.11929 800 2.5Z" fill="#131313"/>
<path d="M813 2.5C813 3.88071 811.881 5 810.5 5C809.119 5 808 3.88071 808 2.5C808 1.11929 809.119 0 810.5 0C811.881 0 813 1.11929 813 2.5Z" fill="#131313"/>
<path d="M826 2.5C826 3.88071 824.881 5 823.5 5C822.119 5 821 3.88071 821 2.5C821 1.11929 822.119 0 823.5 0C824.881 0 826 1.11929 826 2.5Z" fill="#131313"/>
<path d="M839 2.5C839 3.88071 837.881 5 836.5 5C835.119 5 834 3.88071 834 2.5C834 1.11929 835.119 0 836.5 0C837.881 0 839 1.11929 839 2.5Z" fill="#131313"/>
<path d="M852 2.5C852 3.88071 850.881 5 849.5 5C848.119 5 847 3.88071 847 2.5C847 1.11929 848.119 0 849.5 0C850.881 0 852 1.11929 852 2.5Z" fill="#131313"/>
<path d="M865 2.5C865 3.88071 863.881 5 862.5 5C861.119 5 860 3.88071 860 2.5C860 1.11929 861.119 0 862.5 0C863.881 0 865 1.11929 865 2.5Z" fill="#131313"/>
<path d="M878 2.5C878 3.88071 876.881 5 875.5 5C874.119 5 873 3.88071 873 2.5C873 1.11929 874.119 0 875.5 0C876.881 0 878 1.11929 878 2.5Z" fill="#131313"/>
<path d="M891 2.5C891 3.88071 889.881 5 888.5 5C887.119 5 886 3.88071 886 2.5C886 1.11929 887.119 0 888.5 0C889.881 0 891 1.11929 891 2.5Z" fill="#131313"/>
<path d="M904 2.5C904 3.88071 902.881 5 901.5 5C900.119 5 899 3.88071 899 2.5C899 1.11929 900.119 0 901.5 0C902.881 0 904 1.11929 904 2.5Z" fill="#131313"/>
<path d="M917 2.5C917 3.88071 915.881 5 914.5 5C913.119 5 912 3.88071 912 2.5C912 1.11929 913.119 0 914.5 0C915.881 0 917 1.11929 917 2.5Z" fill="#131313"/>
<path d="M930 2.5C930 3.88071 928.881 5 927.5 5C926.119 5 925 3.88071 925 2.5C925 1.11929 926.119 0 927.5 0C928.881 0 930 1.11929 930 2.5Z" fill="#131313"/>
</g>
</svg>
